<mxfile host="app.diagrams.net" modified="2024-04-02T12:05:54.510Z" agent="Mozilla/5.0 (Windows NT 10.0; Win64; x64) AppleWebKit/537.36 (KHTML, like Gecko) Chrome/123.0.0.0 Safari/537.36" etag="CrM-wIAhnt0zw5ietzkc" version="24.2.1" type="github">
  <diagram name="Page-1" id="La7oOdKlawiChqHNvthz">
    <mxGraphModel dx="1562" dy="853" grid="1" gridSize="10" guides="1" tooltips="1" connect="1" arrows="1" fold="1" page="1" pageScale="1" pageWidth="850" pageHeight="1100" math="0" shadow="0">
      <root>
        <mxCell id="0" />
        <mxCell id="1" parent="0" />
        <mxCell id="3Z73C1P6llnlQoY8jPXV-49" value="VPC" style="points=[[0,0],[0.25,0],[0.5,0],[0.75,0],[1,0],[1,0.25],[1,0.5],[1,0.75],[1,1],[0.75,1],[0.5,1],[0.25,1],[0,1],[0,0.75],[0,0.5],[0,0.25]];outlineConnect=0;gradientColor=none;html=1;whiteSpace=wrap;fontSize=12;fontStyle=0;container=1;pointerEvents=0;collapsible=0;recursiveResize=0;shape=mxgraph.aws4.group;grIcon=mxgraph.aws4.group_vpc2;strokeColor=#8C4FFF;fillColor=none;verticalAlign=top;align=left;spacingLeft=30;fontColor=#AAB7B8;dashed=0;" vertex="1" parent="1">
          <mxGeometry x="30" y="80" width="810" height="690" as="geometry" />
        </mxCell>
        <mxCell id="3Z73C1P6llnlQoY8jPXV-9" value="AWS Lambda" style="sketch=0;outlineConnect=0;fontColor=#232F3E;gradientColor=none;strokeColor=#ffffff;fillColor=#232F3E;dashed=0;verticalLabelPosition=middle;verticalAlign=bottom;align=center;html=1;whiteSpace=wrap;fontSize=10;fontStyle=1;spacing=3;shape=mxgraph.aws4.productIcon;prIcon=mxgraph.aws4.lambda;" vertex="1" parent="3Z73C1P6llnlQoY8jPXV-49">
          <mxGeometry x="290" y="215" width="55" height="90" as="geometry" />
        </mxCell>
        <mxCell id="3Z73C1P6llnlQoY8jPXV-51" value="&lt;h1 style=&quot;margin-top: 0px;&quot;&gt;Retrieval-Augmented Generation&lt;/h1&gt;&lt;p&gt;&lt;font style=&quot;font-size: 14px;&quot;&gt;Retrieval-Augmented Generation leverages Amazon Bedrock as a Large Language Model (LLM) for enhanced content generation by integrating external information retrieval mechanisms, enabling the model to produce more contextually relevant and coherent outputs.&lt;/font&gt;&lt;/p&gt;" style="text;html=1;whiteSpace=wrap;overflow=hidden;rounded=0;" vertex="1" parent="3Z73C1P6llnlQoY8jPXV-49">
          <mxGeometry x="480" y="450" width="310" height="190" as="geometry" />
        </mxCell>
        <mxCell id="3Z73C1P6llnlQoY8jPXV-39" style="edgeStyle=orthogonalEdgeStyle;rounded=0;orthogonalLoop=1;jettySize=auto;html=1;entryX=0.5;entryY=1;entryDx=0;entryDy=0;" edge="1" parent="1" source="3Z73C1P6llnlQoY8jPXV-1" target="3Z73C1P6llnlQoY8jPXV-32">
          <mxGeometry relative="1" as="geometry" />
        </mxCell>
        <mxCell id="3Z73C1P6llnlQoY8jPXV-40" value="2) Query" style="edgeLabel;html=1;align=center;verticalAlign=middle;resizable=0;points=[];" vertex="1" connectable="0" parent="3Z73C1P6llnlQoY8jPXV-39">
          <mxGeometry x="-0.0633" y="-1" relative="1" as="geometry">
            <mxPoint as="offset" />
          </mxGeometry>
        </mxCell>
        <mxCell id="3Z73C1P6llnlQoY8jPXV-1" value="" style="verticalLabelPosition=bottom;aspect=fixed;html=1;shape=mxgraph.salesforce.web2;" vertex="1" parent="1">
          <mxGeometry x="190" y="565" width="60" height="60" as="geometry" />
        </mxCell>
        <mxCell id="3Z73C1P6llnlQoY8jPXV-2" value="1) Prompt&amp;nbsp;" style="text;html=1;align=center;verticalAlign=middle;whiteSpace=wrap;rounded=0;" vertex="1" parent="1">
          <mxGeometry x="40" y="579" width="60" height="30" as="geometry" />
        </mxCell>
        <mxCell id="3Z73C1P6llnlQoY8jPXV-3" style="edgeStyle=orthogonalEdgeStyle;rounded=0;orthogonalLoop=1;jettySize=auto;html=1;entryX=0.033;entryY=0.47;entryDx=0;entryDy=0;entryPerimeter=0;" edge="1" parent="1" source="3Z73C1P6llnlQoY8jPXV-2" target="3Z73C1P6llnlQoY8jPXV-1">
          <mxGeometry relative="1" as="geometry" />
        </mxCell>
        <mxCell id="3Z73C1P6llnlQoY8jPXV-13" value="" style="edgeStyle=orthogonalEdgeStyle;rounded=0;orthogonalLoop=1;jettySize=auto;html=1;" edge="1" parent="1" source="3Z73C1P6llnlQoY8jPXV-21" target="3Z73C1P6llnlQoY8jPXV-12">
          <mxGeometry relative="1" as="geometry">
            <mxPoint x="500" y="225" as="sourcePoint" />
          </mxGeometry>
        </mxCell>
        <mxCell id="3Z73C1P6llnlQoY8jPXV-15" value="VPC endpoint using openCypher data format" style="edgeLabel;html=1;align=center;verticalAlign=middle;resizable=0;points=[];" vertex="1" connectable="0" parent="3Z73C1P6llnlQoY8jPXV-13">
          <mxGeometry x="-0.1765" y="1" relative="1" as="geometry">
            <mxPoint x="46" y="31" as="offset" />
          </mxGeometry>
        </mxCell>
        <mxCell id="3Z73C1P6llnlQoY8jPXV-38" style="edgeStyle=orthogonalEdgeStyle;rounded=0;orthogonalLoop=1;jettySize=auto;html=1;" edge="1" parent="1" source="3Z73C1P6llnlQoY8jPXV-9" target="3Z73C1P6llnlQoY8jPXV-12">
          <mxGeometry relative="1" as="geometry">
            <Array as="points">
              <mxPoint x="398" y="340" />
            </Array>
          </mxGeometry>
        </mxCell>
        <mxCell id="3Z73C1P6llnlQoY8jPXV-42" style="edgeStyle=orthogonalEdgeStyle;rounded=0;orthogonalLoop=1;jettySize=auto;html=1;entryX=1;entryY=0.5;entryDx=0;entryDy=0;" edge="1" parent="1" source="3Z73C1P6llnlQoY8jPXV-12" target="3Z73C1P6llnlQoY8jPXV-32">
          <mxGeometry relative="1" as="geometry">
            <Array as="points">
              <mxPoint x="470" y="465" />
            </Array>
          </mxGeometry>
        </mxCell>
        <mxCell id="3Z73C1P6llnlQoY8jPXV-43" value="3) Relevant Information for Enhanced Context" style="edgeLabel;html=1;align=center;verticalAlign=middle;resizable=0;points=[];" vertex="1" connectable="0" parent="3Z73C1P6llnlQoY8jPXV-42">
          <mxGeometry x="0.1907" y="-1" relative="1" as="geometry">
            <mxPoint x="75" y="-29" as="offset" />
          </mxGeometry>
        </mxCell>
        <mxCell id="3Z73C1P6llnlQoY8jPXV-12" value="Amazon Neptune" style="sketch=0;outlineConnect=0;fontColor=#232F3E;gradientColor=none;strokeColor=#ffffff;fillColor=#232F3E;dashed=0;verticalLabelPosition=middle;verticalAlign=bottom;align=center;html=1;whiteSpace=wrap;fontSize=10;fontStyle=1;spacing=3;shape=mxgraph.aws4.productIcon;prIcon=mxgraph.aws4.neptune;" vertex="1" parent="1">
          <mxGeometry x="460" y="285" width="80" height="110" as="geometry" />
        </mxCell>
        <mxCell id="3Z73C1P6llnlQoY8jPXV-24" style="edgeStyle=orthogonalEdgeStyle;rounded=0;orthogonalLoop=1;jettySize=auto;html=1;" edge="1" parent="1" source="3Z73C1P6llnlQoY8jPXV-18" target="3Z73C1P6llnlQoY8jPXV-21">
          <mxGeometry relative="1" as="geometry" />
        </mxCell>
        <mxCell id="3Z73C1P6llnlQoY8jPXV-18" value="AWS Glue" style="sketch=0;outlineConnect=0;fontColor=#232F3E;gradientColor=none;strokeColor=#ffffff;fillColor=#232F3E;dashed=0;verticalLabelPosition=middle;verticalAlign=bottom;align=center;html=1;whiteSpace=wrap;fontSize=10;fontStyle=1;spacing=3;shape=mxgraph.aws4.productIcon;prIcon=mxgraph.aws4.glue;" vertex="1" parent="1">
          <mxGeometry x="200" y="165" width="65" height="80" as="geometry" />
        </mxCell>
        <mxCell id="3Z73C1P6llnlQoY8jPXV-28" style="edgeStyle=orthogonalEdgeStyle;rounded=0;orthogonalLoop=1;jettySize=auto;html=1;" edge="1" parent="1" source="3Z73C1P6llnlQoY8jPXV-19" target="3Z73C1P6llnlQoY8jPXV-27">
          <mxGeometry relative="1" as="geometry" />
        </mxCell>
        <mxCell id="3Z73C1P6llnlQoY8jPXV-19" value="Amazon RDS" style="sketch=0;outlineConnect=0;fontColor=#232F3E;gradientColor=none;strokeColor=#ffffff;fillColor=#232F3E;dashed=0;verticalLabelPosition=middle;verticalAlign=bottom;align=center;html=1;whiteSpace=wrap;fontSize=10;fontStyle=1;spacing=3;shape=mxgraph.aws4.productIcon;prIcon=mxgraph.aws4.rds;" vertex="1" parent="1">
          <mxGeometry x="740" y="195" width="80" height="100" as="geometry" />
        </mxCell>
        <mxCell id="3Z73C1P6llnlQoY8jPXV-23" style="edgeStyle=orthogonalEdgeStyle;rounded=0;orthogonalLoop=1;jettySize=auto;html=1;" edge="1" parent="1" source="3Z73C1P6llnlQoY8jPXV-20" target="3Z73C1P6llnlQoY8jPXV-18">
          <mxGeometry relative="1" as="geometry" />
        </mxCell>
        <mxCell id="3Z73C1P6llnlQoY8jPXV-20" value="Landing Raw data" style="sketch=0;outlineConnect=0;fontColor=#232F3E;gradientColor=none;strokeColor=#ffffff;fillColor=#232F3E;dashed=0;verticalLabelPosition=middle;verticalAlign=bottom;align=center;html=1;whiteSpace=wrap;fontSize=10;fontStyle=1;spacing=3;shape=mxgraph.aws4.productIcon;prIcon=mxgraph.aws4.s3;" vertex="1" parent="1">
          <mxGeometry x="60" y="150" width="80" height="110" as="geometry" />
        </mxCell>
        <mxCell id="3Z73C1P6llnlQoY8jPXV-21" value="Transformed data" style="sketch=0;outlineConnect=0;fontColor=#232F3E;gradientColor=none;strokeColor=#ffffff;fillColor=#232F3E;dashed=0;verticalLabelPosition=middle;verticalAlign=bottom;align=center;html=1;whiteSpace=wrap;fontSize=10;fontStyle=1;spacing=3;shape=mxgraph.aws4.productIcon;prIcon=mxgraph.aws4.s3;" vertex="1" parent="1">
          <mxGeometry x="320" y="150" width="80" height="110" as="geometry" />
        </mxCell>
        <mxCell id="3Z73C1P6llnlQoY8jPXV-29" style="edgeStyle=orthogonalEdgeStyle;rounded=0;orthogonalLoop=1;jettySize=auto;html=1;" edge="1" parent="1" source="3Z73C1P6llnlQoY8jPXV-27" target="3Z73C1P6llnlQoY8jPXV-12">
          <mxGeometry relative="1" as="geometry" />
        </mxCell>
        <mxCell id="3Z73C1P6llnlQoY8jPXV-30" value="GraphMappingConfig using RDF data" style="edgeLabel;html=1;align=center;verticalAlign=middle;resizable=0;points=[];" vertex="1" connectable="0" parent="3Z73C1P6llnlQoY8jPXV-29">
          <mxGeometry x="0.0459" relative="1" as="geometry">
            <mxPoint x="-2" y="10" as="offset" />
          </mxGeometry>
        </mxCell>
        <mxCell id="3Z73C1P6llnlQoY8jPXV-27" value="AWS Database Migration Service" style="sketch=0;outlineConnect=0;fontColor=#232F3E;gradientColor=none;strokeColor=#ffffff;fillColor=#232F3E;dashed=0;verticalLabelPosition=middle;verticalAlign=bottom;align=center;html=1;whiteSpace=wrap;fontSize=10;fontStyle=1;spacing=3;shape=mxgraph.aws4.productIcon;prIcon=mxgraph.aws4.database_migration_service;" vertex="1" parent="1">
          <mxGeometry x="745" y="385" width="70" height="120" as="geometry" />
        </mxCell>
        <mxCell id="3Z73C1P6llnlQoY8jPXV-31" value="AWS Bedrock" style="sketch=0;points=[[0,0,0],[0.25,0,0],[0.5,0,0],[0.75,0,0],[1,0,0],[0,1,0],[0.25,1,0],[0.5,1,0],[0.75,1,0],[1,1,0],[0,0.25,0],[0,0.5,0],[0,0.75,0],[1,0.25,0],[1,0.5,0],[1,0.75,0]];outlineConnect=0;fontColor=#232F3E;fillColor=#01A88D;strokeColor=#ffffff;dashed=0;verticalLabelPosition=bottom;verticalAlign=top;align=center;html=1;fontSize=12;fontStyle=0;aspect=fixed;shape=mxgraph.aws4.resourceIcon;resIcon=mxgraph.aws4.bedrock;" vertex="1" parent="1">
          <mxGeometry x="347" y="656" width="78" height="78" as="geometry" />
        </mxCell>
        <mxCell id="3Z73C1P6llnlQoY8jPXV-41" style="edgeStyle=orthogonalEdgeStyle;rounded=0;orthogonalLoop=1;jettySize=auto;html=1;" edge="1" parent="1" source="3Z73C1P6llnlQoY8jPXV-32" target="3Z73C1P6llnlQoY8jPXV-9">
          <mxGeometry relative="1" as="geometry">
            <Array as="points">
              <mxPoint x="220" y="340" />
            </Array>
          </mxGeometry>
        </mxCell>
        <mxCell id="3Z73C1P6llnlQoY8jPXV-52" value="openCypher or SPARQL" style="edgeLabel;html=1;align=center;verticalAlign=middle;resizable=0;points=[];" vertex="1" connectable="0" parent="3Z73C1P6llnlQoY8jPXV-41">
          <mxGeometry x="-0.4503" y="2" relative="1" as="geometry">
            <mxPoint as="offset" />
          </mxGeometry>
        </mxCell>
        <mxCell id="3Z73C1P6llnlQoY8jPXV-32" value="Search Relevant Information" style="rounded=1;whiteSpace=wrap;html=1;" vertex="1" parent="1">
          <mxGeometry x="160" y="435" width="120" height="60" as="geometry" />
        </mxCell>
        <mxCell id="3Z73C1P6llnlQoY8jPXV-44" style="edgeStyle=orthogonalEdgeStyle;rounded=0;orthogonalLoop=1;jettySize=auto;html=1;entryX=0.5;entryY=0;entryDx=0;entryDy=0;entryPerimeter=0;" edge="1" parent="1" source="3Z73C1P6llnlQoY8jPXV-1" target="3Z73C1P6llnlQoY8jPXV-31">
          <mxGeometry relative="1" as="geometry" />
        </mxCell>
        <mxCell id="3Z73C1P6llnlQoY8jPXV-45" value="4) Prompt + Query + Relevant Info" style="edgeLabel;html=1;align=center;verticalAlign=middle;resizable=0;points=[];" vertex="1" connectable="0" parent="3Z73C1P6llnlQoY8jPXV-44">
          <mxGeometry x="-0.2737" y="-1" relative="1" as="geometry">
            <mxPoint x="78" y="29" as="offset" />
          </mxGeometry>
        </mxCell>
        <mxCell id="3Z73C1P6llnlQoY8jPXV-46" style="edgeStyle=orthogonalEdgeStyle;rounded=0;orthogonalLoop=1;jettySize=auto;html=1;entryX=0.44;entryY=0.977;entryDx=0;entryDy=0;entryPerimeter=0;" edge="1" parent="1" source="3Z73C1P6llnlQoY8jPXV-31" target="3Z73C1P6llnlQoY8jPXV-1">
          <mxGeometry relative="1" as="geometry" />
        </mxCell>
        <mxCell id="3Z73C1P6llnlQoY8jPXV-47" value="5) Generated Text Response" style="edgeLabel;html=1;align=center;verticalAlign=middle;resizable=0;points=[];" vertex="1" connectable="0" parent="3Z73C1P6llnlQoY8jPXV-46">
          <mxGeometry x="0.6021" y="-1" relative="1" as="geometry">
            <mxPoint as="offset" />
          </mxGeometry>
        </mxCell>
      </root>
    </mxGraphModel>
  </diagram>
</mxfile>
